<svg width="93" height="65" viewBox="0 0 93 65" fill="none" xmlns="http://www.w3.org/2000/svg">
<path d="M6.06693 0.532539C4.90146 0.92701 4.11252 1.51871 3.4491 2.41523C2.35535 3.9393 2.39121 3.09658 2.39121 24.2723V43.6012L1.69193 44.3005C0.72369 45.2687 0.562317 46.0218 0.634038 49.0699C0.687829 51.4726 0.70576 51.6519 1.17195 52.3333C1.4409 52.7277 1.96088 53.2477 2.33742 53.4808C2.98291 53.8932 3.21601 53.9111 6.35381 53.9649L9.70678 54.0366L9.93988 55.1304C10.0654 55.74 10.5316 56.9593 10.9619 57.8558C11.6253 59.1647 12.0557 59.7564 13.3287 61.0115C14.6018 62.2846 15.1576 62.697 16.5741 63.3783C20.3036 65.2072 23.9255 65.2072 27.673 63.3783C29.0895 62.697 29.6274 62.3025 30.9184 61.0115C32.2273 59.7026 32.5859 59.2006 33.2852 57.7661C33.7334 56.8338 34.1996 55.5966 34.3251 55.0228L34.5403 54.0008H36.674C39.0229 54.0008 39.6504 53.8215 40.009 53.0146C40.278 52.4229 40.278 51.9926 40.009 51.4009C39.6504 50.594 39.0229 50.4147 36.674 50.4147H34.5403L34.3251 49.3747C34.1996 48.8189 33.9486 48.012 33.7693 47.5817L33.4286 46.8286H46.4998H59.571L59.2303 47.5817C59.051 48.012 58.8 48.8189 58.6745 49.3747L58.4593 50.4147H56.3256C53.9768 50.4147 53.3492 50.594 52.9906 51.4009C52.7037 52.0105 52.7216 52.4767 53.0264 53.0863C53.4209 53.8394 54.0126 54.0008 56.3436 54.0008H58.4593L58.6924 55.1125C58.8359 55.74 59.3021 56.9593 59.7324 57.8558C60.3958 59.1647 60.8261 59.7564 62.0992 61.0115C63.3722 62.2846 63.9281 62.697 65.3446 63.3783C69.0741 65.2072 72.696 65.2072 76.4435 63.3783C77.86 62.697 78.3979 62.3025 79.6888 61.0115C80.9978 59.7026 81.3564 59.2006 82.0556 57.7661C82.5039 56.8338 82.9701 55.5966 83.0956 55.0407L83.3108 54.0366L86.6458 53.9649C89.7836 53.9111 90.0167 53.8932 90.6622 53.4808C91.0387 53.2477 91.5587 52.7277 91.8277 52.3333C92.2939 51.6519 92.3118 51.4726 92.3656 49.0699C92.4373 46.0218 92.2759 45.2687 91.3077 44.3005L90.6084 43.6012V40.2841C90.6084 36.6263 90.465 35.6043 89.694 33.9726C88.3492 31.1217 85.5521 29.239 82.217 28.9342L80.8722 28.8087L78.2365 21.762C75.4214 14.303 75.1525 13.7651 73.5567 12.4921C73.1263 12.1514 72.3195 11.6852 71.7816 11.47C70.8671 11.0935 70.4727 11.0576 65.8287 11.0038L60.8799 10.9501L60.8082 7.59709C60.7544 4.63858 60.7006 4.15446 60.3779 3.41932C59.822 2.23592 58.9793 1.37527 57.8318 0.801495L56.8097 0.299446L31.8866 0.263588C8.5951 0.227722 6.90965 0.245659 6.06693 0.532539ZM56.3436 4.04688C56.6125 4.19033 56.9173 4.51307 57.0428 4.78203C57.2042 5.14063 57.258 9.89217 57.258 24.2364V43.2426H44.0254H30.7749L30.4342 42.8481C29.9681 42.3281 27.9599 41.0551 26.8661 40.6068C25.6648 40.1048 23.4593 39.6565 22.1325 39.6565C19.4609 39.6565 16.0362 40.8937 14.1894 42.5074L13.3646 43.2426H9.67092H5.97728V41.4495V39.6565H7.05309C8.32615 39.6565 8.97164 39.3876 9.31232 38.7421C9.63506 38.1145 9.63506 37.6125 9.31232 36.9849C8.97164 36.3394 8.32615 36.0704 7.05309 36.0704H5.97728V20.5966C5.99521 4.01102 5.95934 4.56686 6.89172 4.04688C7.55514 3.67035 55.6263 3.68828 56.3436 4.04688ZM70.2216 14.7513C71.1719 15.0023 72.1222 15.9168 72.6243 17.0284C72.8395 17.5484 73.0367 18.0146 73.0367 18.0505C73.0367 18.1043 71.423 18.1401 69.4506 18.1401C65.5777 18.1401 65.1115 18.2298 64.6812 19.0546C64.3405 19.718 64.3046 30.7631 64.6453 31.4982C65.0936 32.4844 65.1474 32.4844 74.0767 32.4844C83.1135 32.4844 83.4004 32.5202 84.8528 33.5602C85.5162 34.0443 86.6637 35.5325 86.6637 35.927C86.6637 35.9987 86.2513 36.0704 85.7672 36.0704C84.6735 36.0704 83.9383 36.4111 83.6514 37.0566C83.3825 37.6483 83.3825 38.0786 83.6514 38.6703C83.9563 39.3517 84.6914 39.6565 85.9465 39.6565H87.0223V41.4495V43.2426H83.2928C79.6888 43.2426 79.5275 43.2246 79.2047 42.8481C78.7385 42.3281 76.7303 41.0551 75.6366 40.6068C74.4353 40.1048 72.2298 39.6565 70.903 39.6565C68.2314 39.6565 64.8067 40.8937 62.9598 42.5074C62.3144 43.0812 61.9916 43.2426 61.4896 43.2426H60.8441V28.8983V14.5541H65.2011C67.6755 14.5541 69.8272 14.6437 70.2216 14.7513ZM75.6904 25.1688C76.4076 27.0694 76.9814 28.6832 76.9814 28.7549C76.9814 28.8445 74.9732 28.8983 72.4988 28.8983H68.0162V25.3122V21.7262H71.2078H74.4173L75.6904 25.1688ZM23.9435 43.4398C27.2964 44.1391 30.1832 47.0259 30.8825 50.3788C31.4921 53.3373 30.5956 56.2959 28.4081 58.5013C24.84 62.0694 19.4429 62.0694 15.839 58.5013C12.2529 54.9511 12.2529 49.4644 15.839 45.9142C18.0802 43.7088 20.967 42.8122 23.9435 43.4398ZM72.7139 43.4398C74.3635 43.7805 75.8876 44.6411 77.1786 45.9142C80.7467 49.4823 80.7467 54.9331 77.1786 58.5013C73.6105 62.0694 68.2134 62.0694 64.6094 58.5013C61.0234 54.9511 61.0234 49.4644 64.6094 45.9142C66.8507 43.7088 69.7375 42.8122 72.7139 43.4398ZM10.4599 47.5817C10.2806 48.012 10.0295 48.8189 9.90402 49.3747L9.68885 50.4147H6.92758H4.18424V48.6217V46.8286H7.48342H10.8005L10.4599 47.5817ZM88.8154 48.6217V50.4147H86.072H83.3108L83.0956 49.3747C82.9701 48.8189 82.7191 48.012 82.5398 47.5817L82.1991 46.8286H85.5162H88.8154V48.6217Z" fill="#7D9A40"/>
<path d="M16.9134 14.7153C15.9273 15.0201 14.9411 15.6477 14.2597 16.4366C13.0584 17.7993 12.9688 18.2834 12.9688 23.5191C12.9688 28.7547 13.0584 29.2389 14.2597 30.6016C16.25 32.8608 19.5492 33.0939 21.7367 31.1215C22.7946 30.1712 23.2966 29.2927 23.5476 27.9837C23.8704 26.3521 22.9739 25.1507 21.6112 25.3659C20.7684 25.5094 20.2305 26.119 20.0692 27.1052C19.9974 27.5893 19.7643 28.0555 19.4057 28.3961C18.9395 28.8803 18.7782 28.934 18.1148 28.8444C17.6127 28.7727 17.2362 28.5934 16.9672 28.2706C16.5727 27.8044 16.5548 27.6969 16.5548 23.5191C16.5548 19.3413 16.5727 19.2337 16.9672 18.7675C17.2362 18.4448 17.6127 18.2655 18.1148 18.1938C18.7782 18.1041 18.9395 18.1579 19.4057 18.642C19.7643 18.9827 19.9974 19.4489 20.0692 19.933C20.2305 20.9192 20.7684 21.5288 21.6112 21.6723C22.9739 21.8874 23.8704 20.6861 23.5476 19.0544C23.2966 17.7455 22.7946 16.8669 21.7546 15.9166C20.4278 14.7512 18.4554 14.2491 16.9134 14.7153Z" fill="#7D9A40"/>
<path d="M29.7902 14.8227C28.6427 15.1992 27.1186 16.6157 26.5807 17.8171C26.1683 18.7495 26.1504 18.8929 26.1504 23.5189C26.1504 28.1449 26.1683 28.2884 26.5807 29.2208C27.1724 30.5297 28.6606 31.8565 29.9695 32.2331C31.9777 32.8248 34.1294 32.1972 35.5279 30.6014C36.7293 29.2387 36.8189 28.7546 36.8189 23.5189C36.8189 18.2833 36.7293 17.7991 35.5279 16.4364C34.1294 14.8406 31.7984 14.1772 29.7902 14.8227ZM32.8205 18.7674C33.2149 19.2336 33.2329 19.3412 33.2329 23.5189C33.2329 27.6967 33.2149 27.8043 32.8384 28.2705C32.3005 28.8801 31.2605 29.0594 30.615 28.6291C29.7723 28.0732 29.6468 27.4457 29.6468 23.5189C29.6468 19.646 29.7723 19.0005 30.5613 18.4267C31.1709 17.9784 32.3005 18.1578 32.8205 18.7674Z" fill="#7D9A40"/>
<path d="M40.4223 14.8415C39.5437 15.4691 39.5078 15.8098 39.5078 23.5198C39.5078 31.3016 39.5437 31.6064 40.4761 32.216C40.8526 32.4671 41.3367 32.5029 43.6676 32.4491C46.2317 32.3953 46.4648 32.3595 47.3254 31.9112C48.473 31.3016 49.6205 30.0285 49.9791 28.9527C50.3915 27.7334 50.3915 19.3062 49.9791 18.0869C49.6205 17.0111 48.473 15.7381 47.3254 15.1284C46.4648 14.6802 46.2496 14.6443 43.6318 14.5905C41.2471 14.5367 40.7988 14.5726 40.4223 14.8415ZM46.2496 18.7324C46.6799 19.2345 46.6799 19.2524 46.6799 23.5198C46.6799 27.7872 46.6799 27.8052 46.2496 28.3072C45.8731 28.7555 45.6938 28.8093 44.4566 28.8631L43.0939 28.9348V23.5198V18.1049L44.4566 18.1766C45.6938 18.2304 45.8731 18.2842 46.2496 18.7324Z" fill="#7D9A40"/>
<path d="M20.3773 47.1522C15.8768 48.766 15.5003 54.8981 19.7497 56.996C20.5925 57.4084 21.0049 57.498 22.1165 57.498C25.2364 57.498 27.406 55.3285 27.406 52.2086C27.406 50.6845 27.0295 49.6625 26.0791 48.5687C24.7882 47.1164 22.26 46.4709 20.3773 47.1522ZM22.9951 50.6666C24.1965 51.2942 24.1606 53.2306 22.9234 53.7865C22.009 54.1989 21.0049 53.912 20.5745 53.0872C19.7318 51.4555 21.3635 49.8239 22.9951 50.6666Z" fill="#7D9A40"/>
<path d="M69.1468 47.1522C64.6463 48.766 64.2698 54.8981 68.5193 56.996C69.362 57.4084 69.7744 57.498 70.8861 57.498C74.006 57.498 76.1755 55.3285 76.1755 52.2086C76.1755 50.6845 75.799 49.6625 74.8487 48.5687C73.5577 47.1164 71.0295 46.4709 69.1468 47.1522ZM71.7647 50.6666C72.966 51.2942 72.9301 53.2306 71.6929 53.7865C70.7785 54.1989 69.7744 53.912 69.3441 53.0872C68.5013 51.4555 70.133 49.8239 71.7647 50.6666Z" fill="#7D9A40"/>
<path d="M45.6207 50.665C44.0608 51.5256 44.7242 54 46.4993 54C47.4137 54 48.2923 53.1214 48.2923 52.2249C48.2923 50.8801 46.8041 50.0015 45.6207 50.665Z" fill="#7D9A40"/>
</svg>
