<svg width="68" height="66" viewBox="0 0 68 66" fill="none" xmlns="http://www.w3.org/2000/svg">
<path d="M28.4412 1.21773C26.1877 2.42132 1.62935 16.6979 1.4629 16.9028C1.24523 17.1461 1.23242 18.1064 1.23242 33.0104C1.23242 47.9144 1.24523 48.8747 1.4629 49.118C1.64215 49.3356 26.8919 63.9964 28.4924 64.8158C28.7229 64.9439 29.0814 65.0207 29.2607 64.9951C29.5552 64.9567 33.3452 62.7928 50.2722 53.0104C51.7831 52.1397 53.7934 50.9746 54.7281 50.4368C55.6756 49.899 56.5719 49.3356 56.7255 49.182L57.0072 48.9003L57.4297 49.5789C58.262 50.9618 58.39 51.4739 58.4029 53.3049C58.4029 54.8542 58.3772 55.0335 58.0315 55.8658C57.8267 56.3523 57.4553 57.0821 57.2121 57.4663C56.2518 58.9515 54.2415 60.6033 52.116 61.666C51.2966 62.0758 51.1685 62.2422 51.1685 62.8568C51.1685 63.369 51.5783 63.7403 52.1416 63.7403C53.1404 63.7403 56.2005 62.7672 57.9675 61.8837C60.3747 60.6673 62.8971 58.4778 64.2671 56.4163C67.1481 52.0885 67.5706 46.8773 65.3811 42.4086C63.9214 39.4124 61.4758 37.0053 58.2364 35.3919L57.0584 34.7902V26.173C57.0584 20.6544 57.0072 17.415 56.9304 17.1845C56.8536 16.9796 56.6743 16.7235 56.5078 16.6211C56.3542 16.5315 50.2082 12.9719 42.8458 8.72095C34.5488 3.93221 29.3503 1.00006 29.1454 1.00006C28.9662 1.01286 28.6589 1.10249 28.4412 1.21773ZM32.9098 5.35346C34.9201 6.50583 36.5206 7.50455 36.4694 7.54297C36.1109 7.88868 11.8855 21.7427 11.719 21.7043C11.3477 21.6019 4.43345 17.5814 4.47187 17.4918C4.51028 17.3637 29.0558 3.17676 29.171 3.21517C29.2094 3.22798 30.8996 4.18829 32.9098 5.35346ZM41.5398 10.3343C43.1147 11.2434 44.3439 12.0116 44.2927 12.05C43.1147 12.7799 19.696 26.2498 19.6063 26.2626C19.4655 26.2626 14.3182 23.3177 14.075 23.1C13.9597 22.9976 17.0583 21.141 26.2389 15.84C33.0123 11.9092 38.5821 8.70815 38.6205 8.69534C38.6589 8.69534 39.9649 9.42517 41.5398 10.3343ZM50.1442 15.3023C52.1929 16.4803 53.8574 17.479 53.8574 17.5174C53.8446 17.5558 48.2876 20.7824 41.4886 24.7005L29.1326 31.8196L26.034 30.0398C24.3311 29.0539 22.6665 28.0936 22.3336 27.9015C22.0007 27.7223 21.719 27.543 21.719 27.5046C21.7318 27.4534 46.1493 13.2792 46.4054 13.1768C46.4182 13.164 48.1083 14.1243 50.1442 15.3023ZM7.08391 21.4739L10.6947 23.5609L10.7331 29.5661L10.7715 35.5712L11.0916 35.8785C11.2709 36.0578 13.1659 37.2101 15.317 38.4393C19.4783 40.8337 19.7728 40.9489 20.285 40.3984C20.5667 40.1039 20.5667 40.0398 20.5923 34.7005L20.6307 29.2972L24.3695 31.4355L28.1083 33.5866L28.1211 47.8888C28.1211 55.7633 28.0955 62.2038 28.0571 62.2038C28.0187 62.2038 25.5859 60.8081 22.6537 59.118C19.7088 57.415 15.6883 55.0975 13.7164 53.9579C11.7446 52.8184 8.5948 50.9874 6.71259 49.899L3.28108 47.9272V33.6122C3.28108 25.7376 3.31949 19.3228 3.38352 19.3484C3.43473 19.374 5.09927 20.3343 7.08391 21.4739ZM55.0098 26.6723C55.0098 30.7184 54.9713 34.0347 54.9329 34.0347C54.8945 34.0347 54.4208 33.9195 53.883 33.7786C52.5386 33.4457 50.7716 33.164 49.2479 33.0616L47.9675 32.972V31.1282C47.9675 29.3484 47.9547 29.2716 47.6474 28.9771C46.9944 28.3113 46.9047 28.3625 42.6154 31.9476C34.4975 38.7338 34.1646 39.0283 34.1134 39.3356C33.9726 40.0783 33.8958 40.027 44.8689 48.0296C46.7511 49.3997 47.0968 49.5149 47.6474 48.9515C47.9547 48.657 47.9675 48.593 47.9675 46.7108V44.7902L48.262 44.8414C48.4156 44.8798 48.9022 44.9438 49.3503 44.9822C50.938 45.1359 53.0251 45.8145 54.3439 46.6084C54.9329 46.9669 55.0098 47.0693 55.0098 47.4406C55.0098 47.7863 54.9201 47.9144 54.536 48.1705C54.0623 48.465 31.0276 61.7685 30.4642 62.0629L30.1698 62.2166V47.9016V33.5866L32.5769 32.2037C33.8958 31.4483 39.4399 28.2472 44.8945 25.0846C50.3491 21.922 54.8561 19.3228 54.9201 19.3228C54.9713 19.31 55.0098 22.6262 55.0098 26.6723ZM15.7011 26.4419L18.518 28.068V32.972V37.8888L18.1723 37.6967C17.5449 37.3766 13.0762 34.7773 12.9226 34.6493C12.7945 34.5469 12.7561 33.3945 12.7561 29.6685C12.7561 26.9924 12.7817 24.8157 12.8202 24.8157C12.8586 24.8157 14.1518 25.5456 15.7011 26.4419ZM46.0597 34.5085C46.2773 34.931 46.7255 35.0334 48.6077 35.1103C54.3696 35.3279 59.2223 37.415 62.0008 40.8721C62.9867 42.0885 63.9983 44.0603 64.3824 45.4944C64.7665 46.9541 64.7665 49.7966 64.3824 51.2179C63.9983 52.6519 63.4093 53.9579 62.6666 55.1103C61.9368 56.2243 60.157 58.0809 59.1711 58.7467L58.5309 59.182L58.8382 58.7467C59.376 57.9272 60.1058 56.2627 60.3235 55.328C60.6564 53.9707 60.5411 51.73 60.0802 50.424C58.4925 45.9041 53.5629 42.8696 47.7498 42.8183C46.0085 42.8055 46.0085 42.8055 45.9188 44.739L45.8548 46.2114L41.3478 42.908C38.8638 41.0898 36.8535 39.5661 36.8663 39.5149C36.8791 39.4637 38.915 37.7351 41.3734 35.6608L45.8548 31.9092L45.8932 33.0616C45.906 33.7018 45.9828 34.3548 46.0597 34.5085Z" fill="#7D9A40" stroke="#7D9A40" stroke-width="1.5"/>
</svg>
