<svg width="56" height="66" viewBox="0 0 56 66" fill="none" xmlns="http://www.w3.org/2000/svg">
<path d="M21.8443 1.19994C21.4699 1.32904 20.9406 1.60015 20.6566 1.7938C20.0369 2.23273 19.2881 3.29136 19.0945 4.02723C18.9138 4.76309 18.6297 4.82764 17.6357 4.37579C16.0219 3.65284 14.1112 4.0014 12.9235 5.22785C12.136 6.02827 11.8133 6.78996 11.7616 7.93895C11.7229 8.70064 11.7745 9.07503 12.0069 9.6818C12.2522 10.3531 12.5362 10.7017 14.2145 12.4058L16.1381 14.3552L15.6088 14.4456C14.3565 14.6392 13.1043 15.6204 12.5362 16.8468C11.7358 18.5768 12.3942 20.8618 14.008 21.8688L14.5631 22.2303L13.1946 23.7666C7.28186 30.4152 3.66706 35.6825 2.32442 39.6588C1.04633 43.3898 0.955962 47.3273 2.06622 50.8647C3.96399 56.9453 8.86978 61.709 15.4281 63.8392C19.456 65.156 24.465 65.3626 28.7641 64.4072C32.0303 63.6714 35.0771 62.2384 37.8269 60.1082L38.1496 59.85L40.1249 62.1867C41.2222 63.4648 42.2937 64.6138 42.5132 64.7558C43.0167 65.0656 43.5718 65.0656 44.1011 64.7687C44.5272 64.5363 54.1838 53.2659 54.5324 52.6075C54.9326 51.82 54.6099 50.813 53.8095 50.387C53.448 50.1933 53.0736 50.1546 51.4727 50.1546H49.5621V39.4006C49.5621 32.4163 49.5104 28.4916 49.433 28.1818C49.2522 27.5621 48.7487 26.9683 48.1291 26.6584C47.6643 26.4131 47.3545 26.4002 43.3653 26.4002C39.815 26.4002 39.0146 26.439 38.6273 26.5939C37.956 26.8779 37.6978 27.1361 37.3621 27.8591L37.0781 28.4658L36.1228 27.3427C35.6064 26.7101 34.3928 25.3158 33.4375 24.2184C31.8625 22.424 31.7205 22.2303 31.9528 22.1012C32.5338 21.7785 33.4117 20.7973 33.6828 20.1776C34.7285 17.7376 33.36 15.0265 30.8297 14.4972L30.068 14.3423L32.0045 12.3929C34.2637 10.1078 34.509 9.70762 34.509 8.19715C34.509 6.51885 33.6828 5.1633 32.224 4.46616C30.8942 3.82066 29.7711 3.82066 28.4284 4.46616C27.5634 4.89219 27.4989 4.85346 26.9309 3.53664C26.2724 2.01327 24.9944 1.10957 23.3806 1.00629C22.7609 0.980469 22.322 1.03211 21.8443 1.19994ZM23.9099 3.21389C24.4909 3.45918 24.9685 4.02723 25.2138 4.76309C25.7819 6.51885 27.3569 7.2289 28.9835 6.46721C29.345 6.29938 29.8227 6.11864 30.0422 6.067C31.0362 5.86044 32.2756 6.73832 32.4563 7.79694C32.6242 8.80392 32.4176 9.10085 29.7065 11.8378L27.1761 14.3939H23.1611H19.159L16.6158 11.8378C15.2215 10.4435 14.0209 9.1654 13.9434 9.01048C13.6981 8.5199 13.7756 7.51292 14.0983 7.03525C14.7567 6.04118 15.8799 5.82171 17.158 6.44139C18.8492 7.24181 20.4888 6.50594 21.0697 4.67272C21.4828 3.3559 22.7351 2.7104 23.9099 3.21389ZM30.9717 16.7436C31.5914 17.1696 31.9012 17.6473 31.9658 18.3057C32.0561 19.0157 31.643 19.829 31.0233 20.2034C30.636 20.4487 30.3262 20.4616 23.1482 20.4616C15.9703 20.4616 15.6604 20.4487 15.2602 20.2034C13.8918 19.3772 13.9563 17.3762 15.3764 16.679C15.7508 16.4854 16.6416 16.4595 23.1741 16.4595H30.5457L30.9717 16.7436ZM30.2745 23.7795C32.6758 26.4131 34.509 28.5562 36.1744 30.6993L37.1685 31.9773V41.066V50.1546H35.232C33.2051 50.1546 32.8436 50.2321 32.3531 50.7743C32.0045 51.1616 31.8625 51.8071 32.0045 52.3364C32.0949 52.6462 32.934 53.7436 34.4574 55.5123C36.2519 57.6166 36.7295 58.2492 36.6263 58.3912C36.3035 58.7785 34.3412 60.0566 33.076 60.6892C30.8684 61.8123 28.4026 62.5224 25.6528 62.8193C24.0003 63 20.5921 62.8968 19.0299 62.6257C11.9424 61.3605 6.1716 56.7 4.11891 50.5677C2.86664 46.8109 3.16357 42.5506 4.94515 38.6389C6.50726 35.2048 10.0188 30.4152 15.2215 24.6057L17.0805 22.5272H23.1095H29.1256L30.2745 23.7795ZM47.419 28.6724C47.4577 28.7886 47.4965 33.9784 47.4965 40.2139C47.4965 51.1745 47.5094 51.5618 47.7418 51.8458C47.9741 52.1427 48.0774 52.1557 50.1043 52.2202L52.2215 52.2848L47.8192 57.4746C45.4051 60.3277 43.3911 62.6644 43.3524 62.6644C43.3007 62.6773 41.2739 60.3406 38.8468 57.4746L34.4316 52.2848L36.523 52.2202L38.6144 52.1557L38.9242 51.7942L39.2341 51.4327V40.0332C39.2341 33.7718 39.2728 28.5949 39.3244 28.5562C39.3632 28.5046 41.1964 28.4658 43.3782 28.4658C46.8768 28.4658 47.3545 28.4916 47.419 28.6724Z" fill="#7D9A40" stroke="#7D9A40"/>
<path d="M22.6453 31.3195C22.1676 31.5906 22.0643 31.8488 22.0643 32.7525V33.6175L21.5221 33.7595C20.6442 33.966 19.4694 34.5857 18.811 35.1667C17.0165 36.7546 16.7712 39.7368 18.2817 41.5055C19.2371 42.6157 20.5151 43.2225 23.11 43.7647C25.6275 44.2811 26.8927 45.0557 27.2283 46.2822C27.8093 48.3478 26.0664 49.8324 23.0971 49.8195C20.9412 49.8066 19.6631 49.0707 18.8885 47.3537C18.4237 46.3467 18.0881 46.0756 17.4813 46.2305C16.6551 46.4371 16.526 47.2891 17.1585 48.5543C17.9073 50.0906 19.2112 51.1234 21.0186 51.6527L21.9998 51.9367L22.0643 52.8663C22.116 53.6409 22.1805 53.8345 22.4387 54.0411C22.7486 54.2864 23.1617 54.3509 23.549 54.2089C23.8976 54.0669 24.1299 53.4343 24.1299 52.6468V51.898L24.9045 51.7431C26.699 51.4074 28.4677 50.1552 29.0357 48.8254C30.1847 46.166 28.6355 43.2612 25.4984 42.2284C25.1627 42.1122 24.1816 41.8669 23.3424 41.6862C21.0574 41.2085 20.2182 40.7954 19.6502 39.853C19.3016 39.2979 19.25 38.2521 19.534 37.5937C19.7922 36.9612 20.7862 36.1607 21.6125 35.8896C22.5162 35.6185 23.8072 35.6056 24.6334 35.8896C25.4468 36.1478 26.3634 36.9612 26.8539 37.8261C27.28 38.6007 27.7576 38.8847 28.274 38.6782C29.3456 38.278 29.1261 37.0386 27.7318 35.5152C27.0605 34.7794 25.7308 34.0048 24.6851 33.7595L24.1299 33.6175V32.7912C24.1299 32.1199 24.0783 31.9004 23.8459 31.6422C23.4973 31.2549 23.0068 31.1258 22.6453 31.3195Z" fill="#7D9A40" stroke="#7D9A40"/>
</svg>
