<svg width="37" height="46" viewBox="0 0 37 46" fill="none" xmlns="http://www.w3.org/2000/svg">
<path d="M18.3353 9.80721C17.2868 9.87996 16.8503 10.2694 16.7133 11.2494C16.6877 11.4334 16.6663 11.7287 16.6663 11.9085V12.238L18.4252 13.2608C19.6705 13.9841 20.1926 14.2665 20.2183 14.228C20.2697 14.1467 20.4879 13.2993 20.4708 13.248C20.4622 13.2223 20.2226 13.064 19.9401 12.8928L19.4266 12.5804V12.024V11.4677L20.3595 11.4548L21.2925 11.4463L21.1512 11.2494C20.9373 10.9499 20.3125 10.3764 20 10.1924C19.5165 9.90992 18.9002 9.76441 18.3353 9.80721Z" fill="#7D9A40" stroke="#7D9A40" stroke-width="0.1"/>
<path d="M19.5928 11.6748C19.58 11.709 19.5757 11.9016 19.5843 12.1113L19.5971 12.4879L19.8967 12.6719L20.1963 12.856L20.2776 12.6762C20.3674 12.4794 20.4145 12.0129 20.3717 11.7732L20.3418 11.6192H19.978C19.717 11.6192 19.61 11.6363 19.5928 11.6748Z" fill="#7D9A40" stroke="#7D9A40" stroke-width="0.1"/>
<path d="M17.0515 12.6899C17.0515 12.7969 17.2484 13.1007 17.441 13.2933C17.7448 13.5971 18.1171 13.7598 18.5793 13.7897C18.8361 13.8026 18.9388 13.7983 18.9174 13.7641C18.9046 13.7384 18.7419 13.6314 18.5579 13.5287C18.3782 13.4217 17.9631 13.182 17.6421 12.9937C17.3168 12.8054 17.0515 12.6685 17.0515 12.6899Z" fill="#7D9A40" stroke="#7D9A40" stroke-width="0.1"/>
<path d="M16.3459 13.6896C16.0421 13.7838 15.8024 13.9336 15.5799 14.1604C15.306 14.4343 15.169 14.691 14.9764 15.2816C14.5998 16.4585 14.48 17.3957 14.5656 18.5555C14.6555 19.8051 14.8823 20.2545 15.5627 20.5327C15.7767 20.6225 15.8666 20.6268 17.3644 20.6396C18.2289 20.6482 18.935 20.6696 18.935 20.691C18.935 20.7081 18.751 21.4742 18.5242 22.39C18.2974 23.3144 18.1134 24.1446 18.1134 24.2644C18.1048 24.855 18.6868 25.3087 19.286 25.1803C19.4657 25.1418 19.5513 25.0904 19.7268 24.9107L19.9493 24.6881L20.5442 22.2958C20.8994 20.8536 21.139 19.8137 21.139 19.6853C21.139 19.5612 21.1048 19.39 21.0577 19.2873C20.9892 19.1375 20.955 19.1033 20.8223 19.0862C20.3559 19.0091 19.945 18.9193 19.6369 18.8294C19.3074 18.731 19.2218 18.7224 18.3188 18.7224H17.3516L17.3559 18.4314C17.3559 18.273 17.373 18.0291 17.3901 17.8879L17.4244 17.6311L17.0948 17.2887C16.5898 16.7624 16.2389 16.2231 15.9864 15.5898C15.781 15.0762 15.8195 14.7638 16.1234 14.4985C16.4914 14.1775 16.9878 14.2289 17.2746 14.6226C17.3345 14.6996 17.4244 14.8793 17.4757 15.0206C17.5271 15.1618 17.6169 15.3501 17.6726 15.4443L17.771 15.6112L17.8181 15.4443C17.8908 15.1789 17.8737 14.7381 17.7753 14.4214C17.5827 13.7881 16.9878 13.4842 16.3459 13.6896Z" fill="#7D9A40" stroke="#7D9A40" stroke-width="0.1"/>
<path d="M7.94842 14.2564C7.83287 14.2778 7.64029 14.4661 7.61034 14.586C7.60178 14.6373 7.5975 15.9811 7.60178 17.5774L7.61462 20.4832L7.75584 20.6073L7.89279 20.7314H10.85C14.1281 20.7314 13.9997 20.74 14.1238 20.4532C14.1752 20.3291 14.1838 19.8284 14.1838 17.5003C14.1838 14.4447 14.188 14.4875 13.9441 14.3249C13.8328 14.2521 13.6574 14.2479 10.9313 14.2436C9.34356 14.2393 7.99978 14.2436 7.94842 14.2564Z" fill="#7D9A40" stroke="#7D9A40" stroke-width="0.1"/>
<path d="M16.2633 14.614C16.0836 14.7723 16.0066 14.9906 16.0451 15.2046C16.0579 15.2902 16.1649 15.5598 16.2805 15.7994C16.9096 17.1304 17.9837 18.0676 19.4602 18.5897C19.9053 18.7438 20.5986 18.8936 20.881 18.8936C21.3603 18.8936 21.6385 18.4442 21.4288 18.0077C21.3346 17.8108 21.1677 17.7124 20.8211 17.6525C20.3589 17.5754 19.9095 17.4513 19.5501 17.2973C18.4973 16.8522 17.6328 15.9834 17.2648 14.9906C17.2091 14.8408 17.1193 14.6953 17.0251 14.6183C16.8967 14.507 16.8411 14.4856 16.6442 14.4856C16.4474 14.4856 16.3917 14.507 16.2633 14.614Z" fill="#7D9A40" stroke="#7D9A40" stroke-width="0.1"/>
<path d="M24.7541 16.4835C24.63 16.5306 24.4674 16.6461 24.2962 16.8173C24.0823 17.0313 24.0181 17.1255 23.9624 17.3309C23.7656 17.9942 24.0566 18.6747 24.6643 18.9785C24.9211 19.1069 25.2763 19.1411 25.4175 19.047C25.6529 18.8929 25.7941 18.405 25.7941 17.7588C25.7941 17.1554 25.6871 16.7488 25.4688 16.5049C25.3618 16.3894 25.0537 16.3808 24.7541 16.4835Z" fill="#7D9A40" stroke="#7D9A40" stroke-width="0.1"/>
<path d="M21.8569 17.3003C21.5188 17.433 21.2449 17.5571 21.2449 17.5699C21.2449 17.5828 21.2962 17.6213 21.3561 17.6512C21.4931 17.7283 21.6728 18.0278 21.6728 18.1776C21.6728 18.3231 21.7156 18.3231 22.0537 18.1819C22.2035 18.122 22.3276 18.0792 22.3362 18.0877C22.3404 18.0963 22.7855 19.3802 23.3205 20.9465C23.8554 22.5128 24.3048 23.8181 24.3133 23.8438C24.3262 23.878 24.4417 23.8095 24.6215 23.6597C24.9467 23.3859 25.4645 23.1205 25.8668 23.0135C26.2135 22.9237 26.9966 22.9151 27.3176 22.9964C28.0665 23.189 28.6699 23.5913 29.1621 24.2332C29.2605 24.3616 29.2776 24.3659 29.3761 24.3145C29.5387 24.2332 29.5301 24.0877 29.3461 23.7796C28.9995 23.2104 28.4431 22.7097 27.8696 22.4486C27.5144 22.286 27.1507 22.1919 26.6243 22.1319L26.2049 22.0806L26.0423 21.6655C25.854 21.1947 25.717 20.9422 25.456 20.5999C25.0965 20.1291 24.4588 19.6241 23.911 19.3673C23.7441 19.2903 23.6757 19.2304 23.6414 19.132C23.6158 19.0592 23.4702 18.6398 23.3205 18.2033C23.175 17.7668 23.0209 17.3474 22.9824 17.2746C22.8283 16.9793 22.6443 16.9836 21.8569 17.3003Z" fill="#7D9A40" stroke="#7D9A40" stroke-width="0.1"/>
<path d="M9.64703 21.2602C9.46729 21.3501 9.43305 21.4785 9.43305 22.0947V22.6682L9.55716 22.7923C9.62563 22.8608 9.7155 22.9164 9.75402 22.9164C9.79682 22.9164 9.81821 22.9378 9.80538 22.9763C9.22763 24.4785 8.87671 25.7666 8.87671 26.3872V26.6396H9.62563H10.3703L10.3446 26.2203C10.289 25.2916 10.6099 24.4656 11.2818 23.8066C11.5429 23.5455 11.7012 23.4343 12.0136 23.2802C12.5571 23.0149 12.8653 22.9421 13.4344 22.9421C13.9737 22.9421 14.2989 23.0106 14.7611 23.2331C15.3988 23.537 15.8824 24.0163 16.1948 24.6496C16.4515 25.1632 16.5115 25.4542 16.5115 26.0919L16.5072 26.6396H20.025H23.5471L23.5385 26.1047L23.5342 25.5698H20.7012H17.8724L17.744 25.2573C17.4615 24.5855 17.2604 23.8109 17.1962 23.1689C17.1748 22.9293 17.1791 22.8822 17.239 22.8608C17.3759 22.8094 17.4358 22.5569 17.4358 22.0691C17.4358 21.8123 17.4144 21.5427 17.3888 21.4656C17.2946 21.1918 17.4701 21.2046 13.4259 21.2046C10.5671 21.2046 9.73262 21.2174 9.64703 21.2602Z" fill="#7D9A40" stroke="#7D9A40" stroke-width="0.1"/>
<path d="M12.7499 23.4521C11.8555 23.7003 11.1023 24.4578 10.8626 25.3565C10.7685 25.716 10.7685 26.3194 10.8626 26.6789C11.0937 27.5776 11.8726 28.3565 12.7627 28.5876C13.0923 28.6732 13.7 28.6817 14.0166 28.609C14.9582 28.395 15.7627 27.6033 16.0024 26.6618C16.0837 26.3365 16.0837 25.7032 16.0024 25.3779C15.767 24.4535 15.0009 23.6875 14.0766 23.4521C13.7642 23.3708 13.0452 23.3751 12.7499 23.4521ZM13.9482 25.1211C14.834 25.639 14.5388 26.9528 13.5159 27.0555C12.583 27.1539 12.0266 25.9856 12.6771 25.3009C13.0024 24.9585 13.5416 24.8815 13.9482 25.1211Z" fill="#7D9A40" stroke="#7D9A40" stroke-width="0.1"/>
<path d="M25.9516 23.4541C25.6006 23.5439 25.1342 23.7922 24.8688 24.0318C24.565 24.3014 24.2611 24.7593 24.1199 25.1531C23.9744 25.5596 23.9402 26.2315 24.0471 26.6381C24.3553 27.8449 25.3695 28.6452 26.5935 28.6538C27.3595 28.658 27.9458 28.4184 28.4808 27.8834C28.729 27.6352 28.8488 27.4726 28.9858 27.1944C29.3666 26.4241 29.3666 25.6324 28.9943 24.8535C28.6776 24.1987 28.0485 23.6723 27.3296 23.4669C26.9829 23.3685 26.3025 23.3599 25.9516 23.4541ZM27.0942 25.0932C27.6976 25.4013 27.8474 26.1887 27.4023 26.698C26.8331 27.3442 25.7932 27.0746 25.6049 26.2315C25.4936 25.7222 25.7761 25.2173 26.2811 25.029C26.4951 24.9476 26.8717 24.9776 27.0942 25.0932Z" fill="#7D9A40" stroke="#7D9A40" stroke-width="0.1"/>
<path d="M16.4903 1.13118C14.3542 1.39705 12.6306 1.91963 10.7604 2.86393C7.20318 4.66086 4.57196 7.31041 2.83004 10.8492C0.748911 15.0574 0.446367 19.5313 1.90408 24.4179C3.6735 30.3496 8.58754 36.9963 15.436 42.708C17.3705 44.3216 18.3148 45 18.599 45C19.2591 45 24.1364 40.8286 26.731 38.0507C32.846 31.5047 35.9448 25.3163 36.1649 19.1921C36.3299 14.8373 34.8355 10.5375 31.9842 7.18205C28.1979 2.71724 22.2845 0.40691 16.4903 1.13118ZM21.3861 4.20246C27.3177 5.38513 31.8192 9.91412 33.0111 15.8916C33.3044 17.331 33.3044 19.8614 33.0111 21.3008C31.8009 27.3516 27.2352 31.8806 21.166 33.0449C19.8092 33.3016 17.233 33.2833 15.8486 32.9991C10.1461 31.8256 5.78214 27.7 4.3886 22.1534C3.61849 19.0729 3.84769 16.0108 5.06703 12.9854C6.49724 9.45572 9.52268 6.43945 13.0432 5.03674C14.18 4.58751 15.8027 4.15662 16.8387 4.02827C17.9114 3.89075 20.3226 3.98243 21.3861 4.20246Z" fill="#7D9A40" stroke="#7D9A40"/>
</svg>
